<?xml version="1.0" encoding="UTF-8" standalone="no"?>
<!-- Created with Inkscape (http://www.inkscape.org/) -->

<svg
   width="140"
   height="40"
   viewBox="0 0 37.041666 10.583333"
   version="1.1"
   id="svg6373"
   inkscape:version="1.2.2 (732a01da63, 2022-12-09)"
   sodipodi:docname="logo.svg"
   xmlns:inkscape="http://www.inkscape.org/namespaces/inkscape"
   xmlns:sodipodi="http://sodipodi.sourceforge.net/DTD/sodipodi-0.dtd"
   xmlns="http://www.w3.org/2000/svg"
   xmlns:svg="http://www.w3.org/2000/svg">
  <sodipodi:namedview
     id="namedview6375"
     pagecolor="#ffffff"
     bordercolor="#666666"
     borderopacity="1.0"
     inkscape:showpageshadow="2"
     inkscape:pageopacity="0.0"
     inkscape:pagecheckerboard="0"
     inkscape:deskcolor="#d1d1d1"
     inkscape:document-units="mm"
     showgrid="false"
     inkscape:zoom="5.192992"
     inkscape:cx="72.982974"
     inkscape:cy="53.341118"
     inkscape:window-width="1920"
     inkscape:window-height="1017"
     inkscape:window-x="2936"
     inkscape:window-y="173"
     inkscape:window-maximized="1"
     inkscape:current-layer="layer1" />
  <defs
     id="defs6370">
    <inkscape:path-effect
       effect="bspline"
       id="path-effect19703-0-7-62-2-5-7-3-7-4-8-6"
       is_visible="true"
       weight="33.333333"
       steps="2"
       helper_size="0"
       apply_no_weight="true"
       apply_with_weight="true"
       only_selected="false"
       lpeversion="0" />
    <inkscape:path-effect
       effect="bspline"
       id="path-effect19703-0-7-62-2-5-7-4-1-6-0-85-2-8"
       is_visible="true"
       weight="33.333333"
       steps="2"
       helper_size="0"
       apply_no_weight="true"
       apply_with_weight="true"
       only_selected="false"
       lpeversion="0" />
    <inkscape:path-effect
       effect="bspline"
       id="path-effect19703-0-7-62-2-5-7-2-0-3-1-2-7"
       is_visible="true"
       weight="33.333333"
       steps="2"
       helper_size="0"
       apply_no_weight="true"
       apply_with_weight="true"
       only_selected="false"
       lpeversion="0" />
    <inkscape:path-effect
       effect="bspline"
       id="path-effect19703-0-7-62-2-5-7-4-1-1-4-4-2-0-4"
       is_visible="true"
       weight="33.333333"
       steps="2"
       helper_size="0"
       apply_no_weight="true"
       apply_with_weight="true"
       only_selected="false"
       lpeversion="0" />
    <inkscape:path-effect
       effect="bspline"
       id="path-effect19703-0-7-62-2-5-7-70-7-6-9-6-9"
       is_visible="true"
       weight="33.333333"
       steps="2"
       helper_size="0"
       apply_no_weight="true"
       apply_with_weight="true"
       only_selected="false"
       lpeversion="0" />
    <inkscape:path-effect
       effect="bspline"
       id="path-effect19703-0-7-62-2-5-7-4-4-9-3-7-3-49"
       is_visible="true"
       weight="33.333333"
       steps="2"
       helper_size="0"
       apply_no_weight="true"
       apply_with_weight="true"
       only_selected="false"
       lpeversion="0" />
    <inkscape:path-effect
       effect="bspline"
       id="path-effect19703-0-7-62-2-5-7-7-0-7-6-38-6-0"
       is_visible="true"
       weight="33.333333"
       steps="2"
       helper_size="0"
       apply_no_weight="true"
       apply_with_weight="true"
       only_selected="false"
       lpeversion="0" />
    <inkscape:path-effect
       effect="bspline"
       id="path-effect19703-0-7-62-2-5-7-4-1-8-3-3-09-1-5"
       is_visible="true"
       weight="33.333333"
       steps="2"
       helper_size="0"
       apply_no_weight="true"
       apply_with_weight="true"
       only_selected="false"
       lpeversion="0" />
    <inkscape:path-effect
       effect="bspline"
       id="path-effect19703-0-7-62-2-5-7-2-5-6-3-2-0-4"
       is_visible="true"
       weight="33.333333"
       steps="2"
       helper_size="0"
       apply_no_weight="true"
       apply_with_weight="true"
       only_selected="false"
       lpeversion="0" />
    <inkscape:path-effect
       effect="bspline"
       id="path-effect19703-0-7-62-2-5-7-7-5-6-6-4-3-5-0"
       is_visible="true"
       weight="33.333333"
       steps="2"
       helper_size="0"
       apply_no_weight="true"
       apply_with_weight="true"
       only_selected="false"
       lpeversion="0" />
    <inkscape:path-effect
       effect="bspline"
       id="path-effect19703-0-7-62-2-5-7-4-1-1-6-5-4-18-7-3"
       is_visible="true"
       weight="33.333333"
       steps="2"
       helper_size="0"
       apply_no_weight="true"
       apply_with_weight="true"
       only_selected="false"
       lpeversion="0" />
    <inkscape:path-effect
       effect="bspline"
       id="path-effect19703-0-7-62-2-5-7-7-5-9-3-7-4-5"
       is_visible="true"
       weight="33.333333"
       steps="2"
       helper_size="0"
       apply_no_weight="true"
       apply_with_weight="true"
       only_selected="false"
       lpeversion="0" />
    <inkscape:path-effect
       effect="bspline"
       id="path-effect19703-0-7-62-2-5-7-4-17-1-4-9-4-2-2"
       is_visible="true"
       weight="33.333333"
       steps="2"
       helper_size="0"
       apply_no_weight="true"
       apply_with_weight="true"
       only_selected="false"
       lpeversion="0" />
    <inkscape:path-effect
       effect="bspline"
       id="path-effect19703-0-7-62-2-5-7-4-5-7-1-0-26"
       is_visible="true"
       weight="33.333333"
       steps="2"
       helper_size="0"
       apply_no_weight="true"
       apply_with_weight="true"
       only_selected="false"
       lpeversion="0" />
    <inkscape:path-effect
       effect="bspline"
       id="path-effect19703-0-7-62-2-5-7-4-17-17-2-6-0-4"
       is_visible="true"
       weight="33.333333"
       steps="2"
       helper_size="0"
       apply_no_weight="true"
       apply_with_weight="true"
       only_selected="false"
       lpeversion="0" />
    <inkscape:path-effect
       effect="bspline"
       id="path-effect19703-0-7-62-2-5-7-7-08-5-3-3-09"
       is_visible="true"
       weight="33.333333"
       steps="2"
       helper_size="0"
       apply_no_weight="true"
       apply_with_weight="true"
       only_selected="false"
       lpeversion="0" />
    <inkscape:path-effect
       effect="bspline"
       id="path-effect19703-0-7-62-2-5-7-3-7-4-8-3-9"
       is_visible="true"
       weight="33.333333"
       steps="2"
       helper_size="0"
       apply_no_weight="true"
       apply_with_weight="true"
       only_selected="false"
       lpeversion="0" />
    <inkscape:path-effect
       effect="bspline"
       id="path-effect19703-0-7-62-2-5-7-4-1-6-0-85-2-2-6"
       is_visible="true"
       weight="33.333333"
       steps="2"
       helper_size="0"
       apply_no_weight="true"
       apply_with_weight="true"
       only_selected="false"
       lpeversion="0" />
    <inkscape:path-effect
       effect="bspline"
       id="path-effect19703-0-7-62-2-5-7-2-0-3-1-2-1-2"
       is_visible="true"
       weight="33.333333"
       steps="2"
       helper_size="0"
       apply_no_weight="true"
       apply_with_weight="true"
       only_selected="false"
       lpeversion="0" />
    <inkscape:path-effect
       effect="bspline"
       id="path-effect19703-0-7-62-2-5-7-4-1-1-4-4-2-0-9-5"
       is_visible="true"
       weight="33.333333"
       steps="2"
       helper_size="0"
       apply_no_weight="true"
       apply_with_weight="true"
       only_selected="false"
       lpeversion="0" />
    <inkscape:path-effect
       effect="bspline"
       id="path-effect19703-0-7-62-2-5-7-70-7-6-9-6-8-4"
       is_visible="true"
       weight="33.333333"
       steps="2"
       helper_size="0"
       apply_no_weight="true"
       apply_with_weight="true"
       only_selected="false"
       lpeversion="0" />
    <inkscape:path-effect
       effect="bspline"
       id="path-effect19703-0-7-62-2-5-7-4-4-9-3-7-3-3-49"
       is_visible="true"
       weight="33.333333"
       steps="2"
       helper_size="0"
       apply_no_weight="true"
       apply_with_weight="true"
       only_selected="false"
       lpeversion="0" />
    <inkscape:path-effect
       effect="bspline"
       id="path-effect19703-0-7-62-2-5-7-7-0-7-6-38-6-9-9"
       is_visible="true"
       weight="33.333333"
       steps="2"
       helper_size="0"
       apply_no_weight="true"
       apply_with_weight="true"
       only_selected="false"
       lpeversion="0" />
    <inkscape:path-effect
       effect="bspline"
       id="path-effect19703-0-7-62-2-5-7-4-1-8-3-3-09-1-0-3"
       is_visible="true"
       weight="33.333333"
       steps="2"
       helper_size="0"
       apply_no_weight="true"
       apply_with_weight="true"
       only_selected="false"
       lpeversion="0" />
    <inkscape:path-effect
       effect="bspline"
       id="path-effect19703-0-7-62-2-5-7-2-5-6-3-2-0-5-60"
       is_visible="true"
       weight="33.333333"
       steps="2"
       helper_size="0"
       apply_no_weight="true"
       apply_with_weight="true"
       only_selected="false"
       lpeversion="0" />
    <inkscape:path-effect
       effect="bspline"
       id="path-effect19703-0-7-62-2-5-7-7-5-6-6-4-3-5-2-5"
       is_visible="true"
       weight="33.333333"
       steps="2"
       helper_size="0"
       apply_no_weight="true"
       apply_with_weight="true"
       only_selected="false"
       lpeversion="0" />
    <inkscape:path-effect
       effect="bspline"
       id="path-effect19703-0-7-62-2-5-7-4-1-1-6-5-4-18-7-6-0"
       is_visible="true"
       weight="33.333333"
       steps="2"
       helper_size="0"
       apply_no_weight="true"
       apply_with_weight="true"
       only_selected="false"
       lpeversion="0" />
    <inkscape:path-effect
       effect="bspline"
       id="path-effect19703-0-7-62-2-5-7-7-5-9-3-7-4-6-2"
       is_visible="true"
       weight="33.333333"
       steps="2"
       helper_size="0"
       apply_no_weight="true"
       apply_with_weight="true"
       only_selected="false"
       lpeversion="0" />
    <inkscape:path-effect
       effect="bspline"
       id="path-effect19703-0-7-62-2-5-7-4-17-1-4-9-4-2-47-9"
       is_visible="true"
       weight="33.333333"
       steps="2"
       helper_size="0"
       apply_no_weight="true"
       apply_with_weight="true"
       only_selected="false"
       lpeversion="0" />
    <inkscape:path-effect
       effect="bspline"
       id="path-effect19703-0-7-62-2-5-7-4-5-7-1-0-3-4"
       is_visible="true"
       weight="33.333333"
       steps="2"
       helper_size="0"
       apply_no_weight="true"
       apply_with_weight="true"
       only_selected="false"
       lpeversion="0" />
    <inkscape:path-effect
       effect="bspline"
       id="path-effect19703-0-7-62-2-5-7-4-17-17-2-6-0-6-3"
       is_visible="true"
       weight="33.333333"
       steps="2"
       helper_size="0"
       apply_no_weight="true"
       apply_with_weight="true"
       only_selected="false"
       lpeversion="0" />
    <inkscape:path-effect
       effect="bspline"
       id="path-effect19703-0-7-62-2-5-7-7-08-5-3-3-0-5"
       is_visible="true"
       weight="33.333333"
       steps="2"
       helper_size="0"
       apply_no_weight="true"
       apply_with_weight="true"
       only_selected="false"
       lpeversion="0" />
  </defs>
  <g
     inkscape:label="Capa 1"
     inkscape:groupmode="layer"
     id="layer1">
    <path
       d="m 9.7535971,8.4248022 q -0.595195,0 -0.9950915,-0.2231982 Q 8.3586081,7.9691059 8.1540103,7.5506094 7.9587117,7.1321128 7.9587117,6.5555176 V 4.7420324 q 0,-0.604495 0.1952986,-1.0136916 Q 8.3586081,3.3098442 8.7585056,3.086646 9.1584021,2.863448 9.7535971,2.863448 q 0.5765949,0 0.9671919,0.1859984 0.390597,0.1766985 0.576596,0.5393955 0.195297,0.3626971 0.195297,0.9113926 V 5.0117302 H 10.153494 V 4.4630347 q 0,-0.2417979 -0.0465,-0.3719969 -0.0372,-0.1394988 -0.1301986,-0.1952984 -0.083697,-0.055799 -0.2231983,-0.055799 -0.1394993,0 -0.2231983,0.0744 Q 9.4467018,3.9794404 9.4095,4.1468385 9.372299,4.3049373 9.372299,4.5932349 v 2.1110826 q 0,0.4370964 0.093002,0.5951952 0.1022994,0.1487987 0.297598,0.1487987 0.1487985,0 0.2324975,-0.0651 0.083697,-0.065099 0.1208995,-0.2045983 0.0372,-0.1394988 0.0372,-0.3533971 V 6.1742207 h 1.339188 v 0.5858952 q 0,0.5393956 -0.195297,0.9206924 -0.195299,0.3719969 -0.585896,0.5579954 -0.390597,0.1859985 -0.9578922,0.1859985 z"
       id="path7669"
       style="font-size:192px;line-height:1.25;font-family:'Oswald SemiBold';-inkscape-font-specification:'Oswald SemiBold, ';letter-spacing:0.01px;word-spacing:0px;fill:#4d4d4d;stroke-width:0.0484371" />
    <path
       d="m 13.920438,8.3876025 q -0.557996,0 -0.874194,-0.1673986 Q 12.730047,8.0435053 12.609148,7.718008 12.488249,7.3925107 12.488249,6.9275145 V 3.8771396 H 11.958153 V 2.9564472 h 0.530096 V 1.3289605 h 1.422889 v 1.6274867 h 0.781193 v 0.9206924 h -0.781193 v 2.920176 q 0,0.2510979 0.120899,0.362697 0.130199,0.1022992 0.353397,0.1022992 0.111599,0 0.213898,-0.0093 0.102299,-0.018599 0.185998,-0.0279 v 1.097391 q -0.130199,0.018599 -0.371996,0.0372 -0.241798,0.0279 -0.492896,0.0279 z"
       id="path7671"
       style="font-size:192px;line-height:1.25;font-family:'Oswald SemiBold';-inkscape-font-specification:'Oswald SemiBold, ';letter-spacing:0.01px;word-spacing:0px;fill:#4d4d4d;stroke-width:0.0484371" />
    <path
       d="m 16.5807,8.4248022 q -0.381297,0 -0.660295,-0.1952984 Q 15.650708,8.0342054 15.511209,7.7366078 15.37171,7.4390103 15.37171,7.1228129 q 0,-0.5021959 0.195298,-0.846293 0.195298,-0.3440972 0.511496,-0.5765953 0.316197,-0.2324981 0.706795,-0.3998968 0.390596,-0.1673985 0.781193,-0.3068974 V 4.4909345 q 0,-0.1766985 -0.0279,-0.3068975 -0.02789,-0.1301989 -0.111599,-0.1952983 -0.0744,-0.0744 -0.223198,-0.0744 -0.148799,0 -0.232498,0.0651 -0.0744,0.055799 -0.1116,0.1766985 -0.0279,0.1115991 -0.0372,0.2510979 l -0.0279,0.371997 -1.329889,-0.055799 q 0.0465,-0.9485922 0.492896,-1.4042885 0.455696,-0.4556961 1.367088,-0.4556961 0.818394,0 1.208991,0.4556961 0.390596,0.4463964 0.390596,1.1810904 v 2.5016794 q 0,0.3161974 0.0093,0.5672954 0.0186,0.2417979 0.0372,0.4370963 0.0279,0.1859985 0.0465,0.3254973 H 17.75252 q -0.0279,-0.2045982 -0.0651,-0.4463963 -0.0372,-0.241798 -0.0558,-0.3254973 -0.093,0.3347973 -0.353398,0.604495 -0.260398,0.2603979 -0.697494,0.2603979 z m 0.511496,-0.9950918 q 0.102298,0 0.195299,-0.046499 0.093,-0.0465 0.158097,-0.1208989 0.0744,-0.0744 0.1209,-0.1394989 V 5.6441251 q -0.195298,0.1208989 -0.362697,0.241798 -0.167398,0.1115991 -0.288298,0.2510979 -0.120899,0.1394989 -0.185999,0.3068975 -0.0651,0.1673986 -0.0651,0.3812968 0,0.2789978 0.111599,0.4463964 0.111599,0.1580987 0.316198,0.1580987 z M 16.878298,2.3891518 17.454893,0.52916687 h 1.422888 L 17.73389,2.3891518 Z"
       id="path7673"
       style="font-size:192px;line-height:1.25;font-family:'Oswald SemiBold';-inkscape-font-specification:'Oswald SemiBold, ';letter-spacing:0.01px;word-spacing:0px;fill:#4d4d4d;stroke-width:0.0484371" />
    <path
       d="m 21.510144,10.154588 q -0.585895,0 -1.022992,-0.120899 Q 20.059356,9.9127901 19.817557,9.6709919 19.57576,9.4384938 19.57576,9.0664969 q 0,-0.2510979 0.102299,-0.4556963 0.111599,-0.1952983 0.297597,-0.3440971 0.195299,-0.1487988 0.418497,-0.2603979 -0.325498,-0.092999 -0.511496,-0.2882976 -0.176698,-0.1952984 -0.176698,-0.5021959 0,-0.3254973 0.158099,-0.5579954 0.158098,-0.2324981 0.437096,-0.474296 -0.278998,-0.2324982 -0.418497,-0.5765953 -0.139498,-0.3440972 -0.139498,-0.864893 0,-0.604495 0.213898,-1.0229915 0.213898,-0.4184966 0.623095,-0.6323949 0.418496,-0.223198 1.004391,-0.223198 0.418497,0 0.725394,0.1208989 0.306898,0.1115991 0.511496,0.3347972 0.093,-0.1394988 0.269698,-0.2882976 0.176698,-0.1580986 0.399896,-0.2696978 l 0.185999,-0.083699 0.334797,0.7067942 q -0.093,0.0279 -0.260397,0.092999 -0.158099,0.0651 -0.325498,0.1394988 -0.158099,0.0744 -0.269698,0.1394989 0.093,0.1952984 0.148799,0.4649962 0.0558,0.2696977 0.0558,0.5393955 0,0.5672954 -0.195298,0.9857919 -0.195298,0.4184966 -0.585895,0.6416947 -0.390596,0.2231982 -0.995092,0.2231982 -0.232498,0 -0.446396,-0.0372 -0.204598,-0.0372 -0.390597,-0.092999 -0.0558,0.0744 -0.102299,0.1673986 -0.0372,0.083699 -0.0372,0.1766985 0,0.1115991 0.1023,0.1766986 0.111598,0.0651 0.390596,0.092999 l 1.292689,0.1394988 q 0.678895,0.0744 0.995092,0.4370965 0.325498,0.353397 0.325498,0.9485921 0,0.492896 -0.223199,0.8369932 -0.223198,0.3440972 -0.716094,0.520796 -0.483596,0.1766986 -1.26479,0.1766986 z m 0.167398,-1.0322916 q 0.511497,0 0.781194,-0.092999 0.269697,-0.092999 0.269697,-0.362697 0,-0.1301989 -0.0744,-0.2231981 -0.0651,-0.083699 -0.241799,-0.1394989 -0.167398,-0.055799 -0.474295,-0.083699 L 20.970745,8.127205 q -0.093,0.0744 -0.167398,0.1580986 -0.0744,0.083699 -0.120899,0.1766986 -0.0465,0.092999 -0.0465,0.2045983 0,0.2231981 0.232498,0.3347973 0.241798,0.1208989 0.809093,0.1208989 z m -0.093,-3.3665723 q 0.148799,0 0.241798,-0.055799 0.093,-0.055799 0.139499,-0.1766986 0.0465,-0.1208989 0.0651,-0.3161974 0.0186,-0.1952984 0.0186,-0.4649962 0,-0.2696978 -0.0186,-0.4556962 -0.0186,-0.1952984 -0.0651,-0.3161973 -0.0465,-0.130199 -0.139499,-0.1859986 -0.093,-0.055799 -0.241798,-0.055799 -0.139499,0 -0.241797,0.055799 -0.093,0.055799 -0.1395,0.1766986 -0.0465,0.120899 -0.0651,0.3161974 -0.0186,0.1952983 -0.0186,0.4649961 0,0.2603979 0.0186,0.4556963 0.0186,0.1859985 0.0651,0.3161974 0.0465,0.1208991 0.1395,0.1859985 0.093,0.055799 0.241797,0.055799 z"
       id="path7675"
       style="font-size:192px;line-height:1.25;font-family:'Oswald SemiBold';-inkscape-font-specification:'Oswald SemiBold, ';letter-spacing:0.01px;word-spacing:0px;fill:#4d4d4d;stroke-width:0.0484371" />
    <path
       d="m 26.048981,8.4248022 q -0.576596,0 -0.985792,-0.2045983 Q 24.653993,8.0063056 24.440094,7.6064089 24.235496,7.2065122 24.235496,6.6113171 V 4.676933 q 0,-0.5951951 0.204598,-0.9950918 0.213899,-0.3998967 0.623095,-0.6044951 0.409196,-0.2138981 0.985792,-0.2138981 0.576596,0 0.985792,0.2138981 0.409197,0.2045984 0.623095,0.6044951 0.213898,0.3998967 0.213898,0.9950918 v 1.9343841 q 0,0.5951951 -0.213898,0.9950918 -0.213898,0.3998967 -0.623095,0.613795 -0.409196,0.2045983 -0.985792,0.2045983 z m 0.0093,-0.9485922 q 0.176698,0 0.269697,-0.092999 0.093,-0.1022992 0.120899,-0.2696978 0.0279,-0.1766986 0.0279,-0.3998967 V 4.5839338 q 0,-0.2324981 -0.0279,-0.3998968 -0.0279,-0.1673985 -0.120899,-0.2696978 -0.093,-0.1022991 -0.269697,-0.1022991 -0.176699,0 -0.269699,0.1022991 -0.093,0.1022993 -0.130198,0.2696978 -0.02789,0.1673987 -0.02789,0.3998968 v 2.1296825 q 0,0.2231981 0.02789,0.3998967 0.0372,0.1673986 0.130198,0.2696978 0.093,0.092999 0.269699,0.092999 z"
       id="path7677"
       style="font-size:192px;line-height:1.25;font-family:'Oswald SemiBold';-inkscape-font-specification:'Oswald SemiBold, ';letter-spacing:0.01px;word-spacing:0px;fill:#4d4d4d;stroke-width:0.0484371" />
    <path
       d="M 28.727848,8.3318029 V 2.9564472 h 1.404289 v 0.5393955 q 0.288297,-0.2882976 0.604495,-0.4556963 0.325497,-0.1766984 0.688194,-0.1766984 0.334797,0 0.539396,0.1673985 0.213898,0.1673987 0.316198,0.4463964 0.102298,0.2696978 0.102298,0.6137949 V 8.3318029 H 30.98773 v -4.008267 q 0,-0.2231982 -0.0744,-0.3347972 -0.0651,-0.1115991 -0.260397,-0.1115991 -0.1116,0 -0.251098,0.0651 -0.130199,0.055799 -0.269698,0.1580986 v 4.2314652 z"
       id="path7679"
       style="font-size:192px;line-height:1.25;font-family:'Oswald SemiBold';-inkscape-font-specification:'Oswald SemiBold, ';letter-spacing:0.01px;word-spacing:0px;fill:#4d4d4d;stroke-width:0.0484371" />
    <path
       d="m 35.015081,8.4248022 q -0.576595,0 -0.985792,-0.2045983 Q 33.620092,8.0063056 33.406194,7.6064089 33.201596,7.2065122 33.201596,6.6113171 V 4.676933 q 0,-0.5951951 0.204598,-0.9950918 0.213898,-0.3998967 0.623095,-0.6044951 0.409197,-0.2138981 0.985792,-0.2138981 0.576595,0 0.985792,0.2138981 0.409196,0.2045984 0.623094,0.6044951 0.213899,0.3998967 0.213899,0.9950918 v 1.9343841 q 0,0.5951951 -0.213899,0.9950918 -0.213898,0.3998967 -0.623094,0.613795 -0.409197,0.2045983 -0.985792,0.2045983 z m 0.0093,-0.9485922 q 0.176699,0 0.269698,-0.092999 0.093,-0.1022992 0.120899,-0.2696978 0.0279,-0.1766986 0.0279,-0.3998967 V 4.5839338 q 0,-0.2324981 -0.0279,-0.3998968 -0.0279,-0.1673985 -0.120899,-0.2696978 -0.093,-0.1022991 -0.269698,-0.1022991 -0.176698,0 -0.269697,0.1022991 -0.093,0.1022993 -0.1302,0.2696978 -0.0279,0.1673987 -0.0279,0.3998968 v 2.1296825 q 0,0.2231981 0.0279,0.3998967 0.0372,0.1673986 0.1302,0.2696978 0.093,0.092999 0.269697,0.092999 z"
       id="path7681"
       style="font-size:192px;line-height:1.25;font-family:'Oswald SemiBold';-inkscape-font-specification:'Oswald SemiBold, ';letter-spacing:0.01px;word-spacing:0px;fill:#4d4d4d;stroke-width:0.0484371" />
    <g
       style="stroke:none"
       transform="matrix(0.27734865,0,0,0.27734865,20.568074,-21.376601)"
       id="g24137-6-3-4-9">
      <path
         id="path22005-2-9-9-4"
         style="opacity:1;fill:#ba2d0b;stroke-width:0.0849535;stroke-opacity:0"
         d="m -56.955334,96.318573 a 3,3 0 0 1 -3,3 3,3 0 0 1 -3,-3 3,3 0 0 1 3,-3 3,3 0 0 1 3,3 z" />
      <g
         style="stroke:none"
         transform="translate(-2.612657,43.562831)"
         id="g22481-8-5-0-5-2">
        <path
           inkscape:connector-curvature="0"
           id="path19701-46-0-0-6-8-7-94-9-2-4-3-2"
           d="m -49.717852,46.938241 c 0.163634,0.384925 0.875518,0.991314 1.202424,1.761264 0.326906,0.76995 0.268916,1.703411 0.210944,2.636591 -0.05797,0.93318 -0.115979,1.86687 0.595624,2.473042 0.711602,0.606172 2.193897,0.885716 2.882073,0.366422 0.688176,-0.519294 0.582689,-1.837513 0.284703,-3.074243 -0.297985,-1.236729 -0.788302,-2.391266 -1.582085,-3.190286 -0.793783,-0.799019 -1.890392,-1.241853 -2.631388,-1.381523 -0.740995,-0.13967 -1.125929,0.02381 -0.962295,0.408733 z"
           style="fill:#ff5614;fill-opacity:0.866667;stroke:none;stroke-width:0.250927px;stroke-linecap:butt;stroke-linejoin:miter;stroke-opacity:1" />
        <path
           inkscape:connector-curvature="0"
           id="path19701-46-0-0-6-8-7-3-0-4-0-6-3-8-6"
           d="m -64.9675,58.573245 c -0.163635,-0.384923 -0.875524,-0.991316 -1.202427,-1.761264 -0.326904,-0.769948 -0.268915,-1.703409 -0.210942,-2.636594 0.05797,-0.933185 0.115978,-1.866865 -0.595625,-2.473039 -0.711602,-0.606174 -2.193897,-0.885721 -2.882073,-0.366429 -0.688176,0.519293 -0.582689,1.837512 -0.284701,3.074246 0.297987,1.236734 0.788301,2.391262 1.582084,3.190282 0.793783,0.799019 1.890391,1.241853 2.631387,1.381524 0.740996,0.139672 1.125931,-0.0238 0.962297,-0.408726 z"
           style="fill:#6053cc;fill-opacity:0.866667;stroke:none;stroke-width:0.250927px;stroke-linecap:butt;stroke-linejoin:miter;stroke-opacity:1" />
        <path
           inkscape:connector-curvature="0"
           id="path19701-46-0-0-6-8-7-1-1-2-9-3-1-4"
           d="m -51.606867,60.188218 c -0.303235,0.355988 -0.909624,1.067872 -1.679575,1.394778 -0.76995,0.326906 -1.70341,0.268916 -2.636592,0.210943 -0.933181,-0.05797 -1.866865,-0.115977 -2.473039,0.595624 -0.606174,0.711601 -0.885719,2.193899 -0.366428,2.882073 0.519291,0.688173 1.837514,0.582688 3.074246,0.284702 1.236731,-0.297986 2.391261,-0.788299 3.190282,-1.582083 0.799022,-0.793783 1.241855,-1.890391 1.381525,-2.631391 0.13967,-0.740999 -0.02381,-1.12593 -0.105498,-1.318283 -0.08169,-0.192352 -0.08169,-0.192352 -0.384921,0.163637 z"
           style="fill:#d7263c;fill-opacity:0.866667;stroke:none;stroke-width:0.250927px;stroke-linecap:butt;stroke-linejoin:miter;stroke-opacity:1" />
        <path
           inkscape:connector-curvature="0"
           id="path19701-46-0-0-6-8-7-3-0-1-4-4-1-4-07-1"
           d="m -63.078491,45.32327 c 0.303234,-0.355988 0.909628,-1.067878 1.679576,-1.394781 0.769948,-0.326903 1.703406,-0.268913 2.636588,-0.21094 0.933182,0.05797 1.866866,0.115977 2.473041,-0.595624 0.606174,-0.711601 0.885719,-2.1939 0.366427,-2.882076 -0.519292,-0.688176 -1.837514,-0.582688 -3.074244,-0.284701 -1.23673,0.297986 -2.391261,0.788301 -3.190283,1.582085 -0.799022,0.793783 -1.241857,1.890391 -1.381526,2.631386 -0.13967,0.740995 0.02381,1.125927 0.105498,1.318283 0.08169,0.192357 0.08169,0.192357 0.384923,-0.163632 z"
           style="fill:#378659;fill-opacity:0.866667;stroke:none;stroke-width:0.250927px;stroke-linecap:butt;stroke-linejoin:miter;stroke-opacity:1" />
        <path
           inkscape:connector-curvature="0"
           id="path19701-46-0-0-6-8-7-9-9-7-3-2-2-28"
           d="m -66.65406,51.556022 c -0.0373,-0.466136 -0.111899,-1.398306 0.201381,-2.173898 0.31328,-0.775592 1.014342,-1.394642 1.715194,-2.013507 0.700851,-0.618865 1.402084,-1.238066 1.327533,-2.169873 -0.07455,-0.931808 -0.925026,-2.177621 -1.778834,-2.29704 -0.853809,-0.119419 -1.711341,0.887294 -2.375134,1.972505 -0.663794,1.085212 -1.133466,2.248295 -1.137169,3.374577 -0.0037,1.126282 0.458587,2.214833 0.883787,2.837557 0.425201,0.622724 0.812987,0.779316 1.006767,0.857566 0.193779,0.07825 0.193777,0.07825 0.156475,-0.387887 z"
           style="fill:#aaa95a;fill-opacity:0.866667;stroke:none;stroke-width:0.250927px;stroke-linecap:butt;stroke-linejoin:miter;stroke-opacity:1" />
        <path
           inkscape:connector-curvature="0"
           id="path19701-46-0-0-6-8-7-3-6-8-6-3-4-8-8"
           d="m -58.5424,43.444356 c -0.466142,-0.0373 -1.398303,-0.111899 -2.173895,0.201382 -0.775593,0.313282 -1.394642,1.014341 -2.01351,1.715195 -0.618867,0.700853 -1.238067,1.402082 -2.169872,1.327532 -0.931806,-0.07455 -2.177616,-0.925022 -2.297037,-1.77883 -0.119421,-0.853807 0.887297,-1.711342 1.972505,-2.375133 1.085208,-0.663791 2.24829,-1.133465 3.374573,-1.137168 1.126283,-0.0037 2.21483,0.458585 2.837555,0.883785 0.622725,0.4252 0.77932,0.812988 0.85757,1.006764 0.07825,0.193776 0.07825,0.193776 -0.387889,0.156473 z"
           style="fill:#aaa95a;fill-opacity:0.866667;stroke:none;stroke-width:0.250927px;stroke-linecap:butt;stroke-linejoin:miter;stroke-opacity:1" />
        <path
           inkscape:connector-curvature="0"
           id="path19701-46-0-0-6-8-7-2-8-3-5-1-5-8-9"
           d="m -56.142955,62.067132 c 0.466143,0.0373 1.398302,0.111899 2.173895,-0.201382 0.775593,-0.313281 1.394643,-1.014341 2.013509,-1.715196 0.618867,-0.700854 1.238065,-1.402084 2.169874,-1.327535 0.931809,0.07455 2.177617,0.925024 2.297037,1.778832 0.119421,0.853809 -0.887298,1.711344 -1.972506,2.375136 -1.085208,0.663791 -2.248289,1.133464 -3.374572,1.137168 -1.126283,0.0037 -2.214832,-0.458586 -2.837557,-0.883786 -0.622724,-0.4252 -0.779318,-0.812989 -0.857569,-1.006769 -0.07825,-0.193781 -0.07825,-0.193771 0.387889,-0.156468 z"
           style="fill:#177e89;fill-opacity:0.866667;stroke:none;stroke-width:0.250927px;stroke-linecap:butt;stroke-linejoin:miter;stroke-opacity:1" />
        <path
           inkscape:connector-curvature="0"
           id="path19701-46-0-0-6-8-7-3-0-0-8-7-5-3-8-2"
           d="m -48.031294,53.955461 c 0.0373,0.466141 0.111899,1.398311 -0.201381,2.173903 -0.31328,0.775592 -1.014337,1.394638 -1.715191,2.013505 -0.700855,0.618867 -1.402086,1.238067 -1.327536,2.169875 0.07455,0.931809 0.925025,2.177621 1.778834,2.29704 0.853808,0.119419 1.711341,-0.887293 2.375134,-1.972505 0.663794,-1.085212 1.133467,-2.248295 1.137169,-3.374577 0.0037,-1.126282 -0.458587,-2.214834 -0.883787,-2.837557 -0.425201,-0.622724 -0.812987,-0.779316 -1.006767,-0.857566 -0.193779,-0.07825 -0.193778,-0.07826 -0.156475,0.387882 z"
           style="fill:#177e89;fill-opacity:0.866667;stroke:none;stroke-width:0.250927px;stroke-linecap:butt;stroke-linejoin:miter;stroke-opacity:1" />
        <path
           inkscape:connector-curvature="0"
           id="path19701-46-0-0-6-8-7-1-0-5-1-2-8-9-8"
           d="m -56.142958,43.444356 c 0.466143,-0.0373 1.398304,-0.111899 2.173897,0.201382 0.775593,0.313282 1.394642,1.014341 2.013507,1.715192 0.618865,0.700851 1.23807,1.402084 2.169876,1.327535 0.931806,-0.07455 2.177614,-0.925022 2.297036,-1.778829 0.119421,-0.853808 -0.887297,-1.711343 -1.972505,-2.375134 -1.085208,-0.663791 -2.24829,-1.133464 -3.374573,-1.137168 -1.126284,-0.0037 -2.214831,0.458585 -2.837556,0.883785 -0.622725,0.425199 -0.77932,0.812988 -0.85757,1.006764 -0.07825,0.193776 -0.07825,0.193776 0.387888,0.156473 z"
           style="fill:#ffb800;fill-opacity:0.866667;stroke:none;stroke-width:0.250927px;stroke-linecap:butt;stroke-linejoin:miter;stroke-opacity:1" />
        <path
           inkscape:connector-curvature="0"
           id="path19701-46-0-0-6-8-7-2-1-9-2-3-69-1-1-8"
           d="m -66.654065,53.955461 c -0.0373,0.466141 -0.111899,1.398311 0.201381,2.173903 0.313281,0.775592 1.014338,1.394638 1.715192,2.013505 0.700854,0.618867 1.402081,1.238063 1.327533,2.169873 -0.07455,0.93181 -0.925018,2.177616 -1.778829,2.297038 -0.85381,0.119421 -1.71134,-0.887292 -2.375134,-1.972503 -0.663794,-1.085211 -1.133468,-2.248293 -1.137171,-3.374575 -0.0037,-1.126282 0.458586,-2.214833 0.883786,-2.837557 0.425201,-0.622724 0.812988,-0.779316 1.006767,-0.857566 0.193779,-0.07825 0.193778,-0.07826 0.156475,0.387882 z"
           style="fill:#0d3b65;fill-opacity:0.866667;stroke:none;stroke-width:0.250927px;stroke-linecap:butt;stroke-linejoin:miter;stroke-opacity:1" />
        <path
           inkscape:connector-curvature="0"
           id="path19701-46-0-0-6-8-7-3-0-1-7-2-3-4-1-3-8"
           d="m -58.542404,62.06713 c -0.466142,0.0373 -1.398303,0.111895 -2.173894,-0.201385 -0.775591,-0.313279 -1.394642,-1.014337 -2.01351,-1.715191 -0.618868,-0.700854 -1.238065,-1.402084 -2.169874,-1.327535 -0.931809,0.07455 -2.177617,0.925024 -2.297038,1.778833 -0.11942,0.853808 0.887299,1.711344 1.972506,2.375135 1.085208,0.66379 2.24829,1.133464 3.374573,1.137167 1.126283,0.0037 2.214831,-0.458585 2.837555,-0.883785 0.622725,-0.4252 0.779319,-0.812988 0.85757,-1.006769 0.07825,-0.193781 0.07825,-0.193771 -0.387888,-0.15647 z"
           style="fill:#0d3b65;fill-opacity:0.866667;stroke:none;stroke-width:0.250927px;stroke-linecap:butt;stroke-linejoin:miter;stroke-opacity:1" />
        <path
           inkscape:connector-curvature="0"
           id="path19701-46-0-0-6-8-7-2-1-5-3-46-3-3-68"
           d="m -51.606867,45.32327 c -0.303235,-0.355988 -0.909629,-1.067878 -1.679577,-1.394781 -0.769948,-0.326903 -1.703407,-0.268913 -2.636589,-0.21094 -0.933182,0.05797 -1.866865,0.115977 -2.473039,-0.595624 -0.606174,-0.711601 -0.885719,-2.1939 -0.366428,-2.882076 0.519291,-0.688177 1.837514,-0.582688 3.074243,-0.284702 1.23673,0.297987 2.391263,0.788302 3.190285,1.582085 0.799022,0.793784 1.241857,1.890391 1.381526,2.631386 0.139669,0.740995 -0.02381,1.125927 -0.105499,1.318284 -0.08169,0.192357 -0.08169,0.192357 -0.384922,-0.163632 z"
           style="fill:#388659;fill-opacity:0.866667;stroke:none;stroke-width:0.250927px;stroke-linecap:butt;stroke-linejoin:miter;stroke-opacity:1" />
        <path
           inkscape:connector-curvature="0"
           id="path19701-46-0-0-6-8-7-3-7-2-2-8-0-1-4-3"
           d="m -48.031295,51.556022 c 0.0373,-0.466136 0.111899,-1.398306 -0.201382,-2.173898 -0.313281,-0.775593 -1.014342,-1.394642 -1.715194,-2.013507 -0.700851,-0.618865 -1.402084,-1.238066 -1.327533,-2.169874 0.07455,-0.931808 0.925025,-2.17762 1.778833,-2.297039 0.853809,-0.119418 1.711341,0.887294 2.375135,1.972506 0.663794,1.085211 1.133463,2.248285 1.137167,3.374571 0.0037,1.126287 -0.458584,2.214839 -0.883785,2.837563 -0.425202,0.622724 -0.812987,0.779315 -1.006766,0.857565 -0.193779,0.07825 -0.193778,0.07825 -0.156475,-0.387887 z"
           style="fill:#ffb800;fill-opacity:0.866667;stroke:none;stroke-width:0.250927px;stroke-linecap:butt;stroke-linejoin:miter;stroke-opacity:1" />
        <path
           inkscape:connector-curvature="0"
           id="path19701-46-0-0-6-8-7-3-1-5-74-5-4-8"
           d="m -49.717853,58.573245 c 0.163635,-0.384923 0.875524,-0.991316 1.202427,-1.761264 0.326904,-0.769948 0.268915,-1.703409 0.210942,-2.636594 -0.05797,-0.933185 -0.115978,-1.866865 0.595624,-2.473039 0.711603,-0.606174 2.193898,-0.885721 2.882073,-0.366429 0.688176,0.519293 0.582689,1.837512 0.284702,3.074246 -0.297988,1.236734 -0.788301,2.391262 -1.582084,3.190282 -0.793783,0.799019 -1.890392,1.241853 -2.631388,1.381524 -0.740996,0.139672 -1.125931,-0.0238 -0.962296,-0.408726 z"
           style="fill:#ff5614;fill-opacity:0.866667;stroke:none;stroke-width:0.250927px;stroke-linecap:butt;stroke-linejoin:miter;stroke-opacity:1" />
        <path
           inkscape:connector-curvature="0"
           id="path19701-46-0-0-6-8-7-3-7-5-1-3-8-1-3"
           d="m -63.078491,60.188218 c 0.303234,0.355988 0.909623,1.067872 1.679574,1.394778 0.76995,0.326906 1.703409,0.268916 2.636591,0.210943 0.933181,-0.05797 1.866866,-0.115977 2.47304,0.595624 0.606175,0.711601 0.88572,2.193899 0.366428,2.882073 -0.519292,0.688173 -1.837514,0.582688 -3.074246,0.284702 -1.236732,-0.297986 -2.39126,-0.788299 -3.190282,-1.582083 -0.799021,-0.793783 -1.241855,-1.890392 -1.381525,-2.631391 -0.13967,-0.740999 0.02381,-1.125931 0.105498,-1.318283 0.08169,-0.192352 0.08169,-0.192352 0.384922,0.163637 z"
           style="fill:#d7263c;fill-opacity:0.866667;stroke:none;stroke-width:0.250927px;stroke-linecap:butt;stroke-linejoin:miter;stroke-opacity:1" />
        <path
           inkscape:connector-curvature="0"
           id="path19701-46-0-0-6-8-7-2-5-0-7-1-9-3"
           d="m -64.967501,46.938241 c -0.163634,0.384925 -0.875518,0.991314 -1.202424,1.761264 -0.326906,0.76995 -0.268916,1.703411 -0.210944,2.636591 0.05797,0.93318 0.115978,1.86687 -0.595624,2.473042 -0.711602,0.606172 -2.193897,0.885716 -2.882073,0.366422 -0.688177,-0.519294 -0.58269,-1.837513 -0.284704,-3.074243 0.297986,-1.23673 0.788303,-2.391266 1.582086,-3.190286 0.793783,-0.799019 1.890391,-1.241853 2.631387,-1.381523 0.740995,-0.13967 1.125929,0.02381 0.962296,0.408733 z"
           style="fill:#6053cc;fill-opacity:0.866667;stroke:none;stroke-width:0.250927px;stroke-linecap:butt;stroke-linejoin:miter;stroke-opacity:1" />
      </g>
    </g>
    <path
       d="m 24.88356,2.3838796 q -0.102814,0 -0.195995,-0.032131 -0.09318,-0.03213 -0.162258,-0.089966 -0.06908,-0.057836 -0.101218,-0.1333429 -0.01606,-0.033737 0,-0.062655 0.01767,-0.028918 0.05783,-0.03695 0.02892,-0.00643 0.05624,0.00964 0.02892,0.01446 0.04338,0.044983 0.01928,0.040164 0.06265,0.073901 0.04499,0.033737 0.10764,0.054622 0.06265,0.020885 0.131732,0.020885 0.07711,0 0.141378,-0.024099 0.06587,-0.024098 0.106031,-0.069081 0.04017,-0.04659 0.04017,-0.1140645 0,-0.085146 -0.06747,-0.1526213 Q 25.03779,1.8055259 24.885179,1.7894609 24.685963,1.7701825 24.5719,1.6721837 24.457832,1.574185 24.457832,1.4295965 q 0,-0.1060321 0.05945,-0.179933 0.05944,-0.0739 0.160656,-0.1124571 0.10282,-0.038557 0.22813,-0.038557 0.098,0 0.170289,0.027311 0.0739,0.027311 0.128526,0.075507 0.05462,0.048197 0.09479,0.1140645 0.02248,0.035344 0.01767,0.067474 -0.0032,0.030525 -0.03052,0.048196 -0.03053,0.019279 -0.06588,0.00803 -0.03534,-0.011246 -0.05301,-0.041771 -0.0257,-0.04659 -0.06265,-0.07872 -0.03694,-0.03213 -0.08675,-0.049802 -0.0498,-0.01928 -0.117273,-0.01928 -0.118887,-0.00161 -0.199212,0.044983 -0.08033,0.044983 -0.08033,0.1397693 0,0.048196 0.0241,0.093179 0.0257,0.043376 0.09157,0.075508 0.06747,0.03213 0.192784,0.044983 0.191177,0.019279 0.297208,0.1172773 0.10764,0.096392 0.10764,0.2554394 0,0.091573 -0.03856,0.1590471 -0.03695,0.067475 -0.101212,0.1140645 -0.06265,0.044983 -0.144588,0.067474 -0.08033,0.022492 -0.167084,0.022492 z"
       id="path7685"
       style="font-weight:bold;font-size:26.6667px;line-height:1.25;font-family:Comfortaa;-inkscape-font-specification:'Comfortaa Bold';text-align:center;letter-spacing:0.01px;word-spacing:0px;text-anchor:middle;fill:#c1c8c2;stroke-width:0.0602451" />
    <path
       d="m 25.973395,2.3742404 q -0.13013,0 -0.229733,-0.056229 -0.0996,-0.057835 -0.157438,-0.1574409 -0.05624,-0.1012119 -0.05624,-0.2313413 0,-0.1317362 0.05624,-0.2313419 0.05783,-0.1012119 0.157438,-0.1574404 0.0996,-0.057836 0.229733,-0.057836 0.128527,0 0.22813,0.057836 0.0996,0.056228 0.155836,0.1574404 0.05783,0.099606 0.05783,0.2313419 0,0.1301294 -0.05623,0.2313413 -0.05623,0.099606 -0.155831,0.1574409 -0.09961,0.056229 -0.229738,0.056229 z m 0,-0.1445889 q 0.08354,0 0.147805,-0.038557 0.06426,-0.038557 0.0996,-0.1060313 0.03694,-0.067475 0.03694,-0.1558343 0,-0.088359 -0.03694,-0.1558343 -0.03535,-0.069082 -0.0996,-0.1076381 -0.06426,-0.038557 -0.147805,-0.038557 -0.08354,0 -0.147799,0.038557 -0.06426,0.038557 -0.101213,0.1076381 -0.03694,0.067474 -0.03694,0.1558343 0,0.088359 0.03694,0.1558343 0.03694,0.067474 0.101213,0.1060313 0.06426,0.038557 0.147799,0.038557 z"
       id="path7687"
       style="font-weight:bold;font-size:26.6667px;line-height:1.25;font-family:Comfortaa;-inkscape-font-specification:'Comfortaa Bold';text-align:center;letter-spacing:0.01px;word-spacing:0px;text-anchor:middle;fill:#c1c8c2;stroke-width:0.0602451" />
    <path
       d="m 27.058409,2.3742404 q -0.128521,0 -0.229733,-0.057836 -0.0996,-0.059441 -0.157438,-0.1590472 -0.05623,-0.1012118 -0.05623,-0.2281283 0,-0.1301295 0.05623,-0.2313419 0.05623,-0.1012119 0.154228,-0.1574404 0.09799,-0.057836 0.224912,-0.057836 0.09479,0 0.173507,0.036951 0.07872,0.035344 0.141377,0.1076382 0.02249,0.025704 0.01606,0.053016 -0.0064,0.027311 -0.03534,0.048196 -0.02249,0.016065 -0.04981,0.011246 -0.02731,-0.00643 -0.04981,-0.028918 -0.07872,-0.08354 -0.195996,-0.08354 -0.08193,0 -0.144587,0.038557 -0.06265,0.03695 -0.098,0.1044252 -0.03534,0.067475 -0.03534,0.1590472 0,0.086753 0.03534,0.1542274 0.03695,0.067475 0.101211,0.1076382 0.06426,0.038557 0.149408,0.038557 0.05624,0 0.098,-0.012852 0.04337,-0.014458 0.07872,-0.043376 0.0257,-0.020885 0.05301,-0.022492 0.02731,-0.00321 0.04819,0.014459 0.02731,0.022492 0.03052,0.05141 0.0032,0.027311 -0.01928,0.049803 -0.11567,0.1076381 -0.289177,0.1076381 z"
       id="path7689"
       style="font-weight:bold;font-size:26.6667px;line-height:1.25;font-family:Comfortaa;-inkscape-font-specification:'Comfortaa Bold';text-align:center;letter-spacing:0.01px;word-spacing:0px;text-anchor:middle;fill:#c1c8c2;stroke-width:0.0602451" />
    <path
       d="m 27.724124,2.3678141 q -0.03535,0 -0.05944,-0.022492 -0.02249,-0.024098 -0.02249,-0.059441 v -0.71491 q 0,-0.036951 0.02249,-0.059442 0.0241,-0.022492 0.05944,-0.022492 0.03694,0 0.05944,0.022492 0.02249,0.022491 0.02249,0.059442 v 0.7149102 q 0,0.035344 -0.02249,0.059442 -0.02249,0.022492 -0.05944,0.022492 z m 0,-1.0217585 q -0.04338,0 -0.07552,-0.030525 -0.03053,-0.03213 -0.03053,-0.075508 0,-0.043376 0.03053,-0.0739 0.03214,-0.032131 0.07552,-0.032131 0.04337,0 0.0739,0.032131 0.03213,0.030524 0.03213,0.0739 0,0.043377 -0.03213,0.075508 -0.03052,0.030525 -0.0739,0.030525 z"
       id="path7691"
       style="font-weight:bold;font-size:26.6667px;line-height:1.25;font-family:Comfortaa;-inkscape-font-specification:'Comfortaa Bold';text-align:center;letter-spacing:0.01px;word-spacing:0px;text-anchor:middle;fill:#c1c8c2;stroke-width:0.0602451" />
    <path
       d="m 28.478188,2.3742404 q -0.117273,0 -0.210454,-0.057836 -0.09318,-0.059441 -0.147799,-0.1590472 -0.05301,-0.1012118 -0.05301,-0.2281283 0,-0.1269167 0.05783,-0.2281284 0.05944,-0.1012118 0.159047,-0.1590477 0.101212,-0.059442 0.226522,-0.059442 0.12531,0 0.224913,0.059442 0.0996,0.057836 0.157439,0.1590477 0.05944,0.1012117 0.05944,0.2281284 h -0.06265 q 0,0.1269165 -0.05463,0.2281283 -0.05301,0.099606 -0.14619,0.1590472 -0.09318,0.057836 -0.210461,0.057836 z m 0.03213,-0.1445889 q 0.08193,0 0.14619,-0.038557 0.06426,-0.040164 0.101212,-0.1076382 0.03695,-0.069081 0.03695,-0.1542274 0,-0.086753 -0.03695,-0.1542276 -0.03694,-0.069081 -0.101212,-0.1076381 -0.06426,-0.040164 -0.14619,-0.040164 -0.08034,0 -0.146197,0.040164 -0.06426,0.038557 -0.10282,0.1076381 -0.03694,0.067474 -0.03694,0.1542276 0,0.085146 0.03694,0.1542274 0.03856,0.067475 0.10282,0.1076382 0.06586,0.038557 0.146197,0.038557 z m 0.359862,0.1397687 q -0.03535,0 -0.05944,-0.022491 -0.02249,-0.024098 -0.02249,-0.059442 V 2.0416867 l 0.03053,-0.170293 0.13334,0.057836 v 0.3582578 q 0,0.035344 -0.0241,0.059442 -0.02249,0.022491 -0.05783,0.022491 z"
       id="path7693"
       style="font-weight:bold;font-size:26.6667px;line-height:1.25;font-family:Comfortaa;-inkscape-font-specification:'Comfortaa Bold';text-align:center;letter-spacing:0.01px;word-spacing:0px;text-anchor:middle;fill:#c1c8c2;stroke-width:0.0602451" />
    <path
       d="m 29.405765,2.3678141 q -0.07069,0 -0.12531,-0.038557 -0.05463,-0.038557 -0.08515,-0.1044253 -0.03053,-0.067475 -0.03053,-0.1542275 V 1.1934342 q 0,-0.035344 0.02248,-0.057836 0.02249,-0.022491 0.05783,-0.022491 0.03535,0 0.05783,0.022491 0.02249,0.022491 0.02249,0.057836 v 0.8771702 q 0,0.059441 0.02249,0.097999 0.02249,0.038557 0.05783,0.038557 h 0.04017 q 0.03212,0 0.0514,0.022491 0.02089,0.022492 0.02089,0.057836 0,0.035344 -0.03053,0.057835 -0.03053,0.022492 -0.07872,0.022492 z"
       id="path7695"
       style="font-weight:bold;font-size:26.6667px;line-height:1.25;font-family:Comfortaa;-inkscape-font-specification:'Comfortaa Bold';text-align:center;letter-spacing:0.01px;word-spacing:0px;text-anchor:middle;fill:#c1c8c2;stroke-width:0.0602451" />
    <path
       d="m 30.248792,2.3678141 q -0.03535,0 -0.05944,-0.024098 -0.02249,-0.024098 -0.02249,-0.059443 v -1.087626 q 0,-0.036951 0.02249,-0.059442 0.0241,-0.024098 0.05944,-0.024098 0.03856,0 0.06427,0.030524 l 0.70045,0.9317929 V 1.1966471 q 0,-0.036951 0.0241,-0.059442 0.0241,-0.024098 0.05944,-0.024098 0.03695,0 0.05944,0.024098 0.02249,0.022491 0.02249,0.059442 V 2.284274 q 0,0.035344 -0.02249,0.059443 -0.02249,0.024098 -0.05944,0.024098 -0.01606,0 -0.03534,-0.00643 -0.01767,-0.00803 -0.02892,-0.022491 L 30.332334,1.4071037 V 2.284274 q 0,0.035344 -0.0241,0.059443 -0.02249,0.024098 -0.05945,0.024098 z"
       id="path7697"
       style="font-weight:bold;font-size:26.6667px;line-height:1.25;font-family:Comfortaa;-inkscape-font-specification:'Comfortaa Bold';text-align:center;letter-spacing:0.01px;word-spacing:0px;text-anchor:middle;fill:#c1c8c2;stroke-width:0.0602451" />
    <path
       d="m 31.897701,2.3742404 q -0.13334,0 -0.237763,-0.056229 -0.10282,-0.057835 -0.162264,-0.1574409 -0.05783,-0.1012119 -0.05783,-0.2313413 0,-0.1317362 0.05463,-0.2313419 0.05623,-0.1012119 0.154227,-0.1574404 0.098,-0.057836 0.224913,-0.057836 0.12531,0 0.21528,0.056229 0.08997,0.054622 0.136551,0.1526215 0.0482,0.096392 0.0482,0.2233087 0,0.030525 -0.02089,0.051409 -0.02089,0.019279 -0.05301,0.019279 H 31.552298 V 1.8569348 h 0.642617 l -0.06588,0.044983 q -0.0016,-0.080327 -0.03212,-0.1429821 -0.03053,-0.064262 -0.08675,-0.1012118 -0.05623,-0.03695 -0.136558,-0.03695 -0.09157,0 -0.157438,0.040164 -0.06426,0.040164 -0.098,0.1108511 -0.03374,0.069081 -0.03374,0.157441 0,0.088359 0.04017,0.157441 0.04017,0.069081 0.110851,0.1092442 0.07068,0.040164 0.162258,0.040164 0.04981,0 0.101212,-0.017672 0.05301,-0.01928 0.08515,-0.043377 0.0241,-0.017672 0.05141,-0.017672 0.02892,-0.00161 0.04981,0.016065 0.02731,0.024098 0.02892,0.053016 0.0017,0.028918 -0.02571,0.049803 -0.05463,0.043376 -0.136558,0.070688 -0.08033,0.027311 -0.154228,0.027311 z"
       id="path7699"
       style="font-weight:bold;font-size:26.6667px;line-height:1.25;font-family:Comfortaa;-inkscape-font-specification:'Comfortaa Bold';text-align:center;letter-spacing:0.01px;word-spacing:0px;text-anchor:middle;fill:#c1c8c2;stroke-width:0.0602451" />
    <path
       d="m 32.802788,2.3678141 q -0.08033,0 -0.144589,-0.040164 -0.06427,-0.04177 -0.101212,-0.1124578 -0.03694,-0.070688 -0.03694,-0.1590471 V 1.2898264 q 0,-0.035344 0.02249,-0.057836 0.02249,-0.022491 0.05783,-0.022491 0.03535,0 0.05783,0.022491 0.02249,0.022491 0.02249,0.057836 v 0.7663191 q 0,0.064262 0.03535,0.1076382 0.03535,0.043376 0.08675,0.043376 h 0.05463 q 0.02892,0 0.04819,0.022491 0.02088,0.022492 0.02088,0.057836 0,0.035344 -0.0273,0.057835 -0.02571,0.022492 -0.06747,0.022492 z M 32.446137,1.6593302 q -0.03374,0 -0.05463,-0.019279 -0.02088,-0.019279 -0.02088,-0.048196 0,-0.03213 0.02088,-0.051409 0.02089,-0.019279 0.05463,-0.019279 h 0.371109 q 0.03374,0 0.05463,0.019279 0.02088,0.019279 0.02088,0.051409 0,0.028918 -0.02088,0.048196 -0.02089,0.019279 -0.05463,0.019279 z"
       id="path7701"
       style="font-weight:bold;font-size:26.6667px;line-height:1.25;font-family:Comfortaa;-inkscape-font-specification:'Comfortaa Bold';text-align:center;letter-spacing:0.01px;word-spacing:0px;text-anchor:middle;fill:#c1c8c2;stroke-width:0.0602451" />
    <path
       d="m 33.330337,2.3678141 q -0.02571,0 -0.0482,-0.014458 -0.02088,-0.016065 -0.02892,-0.038557 L 33.015453,1.6014949 q -0.01285,-0.049803 0,-0.080327 0.01446,-0.032131 0.06105,-0.032131 0.03053,0 0.04981,0.017672 0.02088,0.016065 0.03374,0.056229 l 0.202424,0.6329762 h -0.05622 l 0.191175,-0.6458282 q 0.008,-0.027311 0.0273,-0.043376 0.01928,-0.017672 0.05301,-0.017672 0.03213,0 0.05141,0.017672 0.02088,0.016065 0.02731,0.043376 l 0.155837,0.6072713 h -0.0241 l 0.189565,-0.594419 q 0.02249,-0.073901 0.08354,-0.073901 0.04499,0 0.06105,0.032131 0.01607,0.030524 -0.0016,0.080327 l -0.237815,0.7133032 q -0.0064,0.022491 -0.0273,0.038557 -0.02089,0.014458 -0.04819,0.014458 -0.02571,0 -0.0482,-0.014458 -0.02249,-0.016065 -0.02892,-0.038557 L 33.564865,1.7027067 h 0.01607 l -0.173506,0.6120917 q -0.0064,0.022491 -0.02892,0.038557 -0.02089,0.014458 -0.0482,0.014458 z"
       id="path7703"
       style="font-weight:bold;font-size:26.6667px;line-height:1.25;font-family:Comfortaa;-inkscape-font-specification:'Comfortaa Bold';text-align:center;letter-spacing:0.01px;word-spacing:0px;text-anchor:middle;fill:#c1c8c2;stroke-width:0.0602451" />
    <path
       d="m 34.664362,2.3742404 q -0.130129,0 -0.229733,-0.056229 -0.09961,-0.057835 -0.157444,-0.1574409 -0.05623,-0.1012119 -0.05623,-0.2313413 0,-0.1317362 0.05623,-0.2313419 0.05783,-0.1012119 0.157444,-0.1574404 0.0996,-0.057836 0.229733,-0.057836 0.128527,0 0.228131,0.057836 0.0996,0.056228 0.155835,0.1574404 0.05783,0.099606 0.05783,0.2313419 0,0.1301294 -0.05624,0.2313413 -0.05623,0.099606 -0.15583,0.1574409 -0.09961,0.056229 -0.229739,0.056229 z m 0,-0.1445889 q 0.08354,0 0.147806,-0.038557 0.06426,-0.038557 0.0996,-0.1060313 0.03695,-0.067475 0.03695,-0.1558343 0,-0.088359 -0.03695,-0.1558343 -0.03535,-0.069082 -0.0996,-0.1076381 -0.06426,-0.038557 -0.147806,-0.038557 -0.08354,0 -0.147799,0.038557 -0.06426,0.038557 -0.101212,0.1076381 -0.03695,0.067474 -0.03695,0.1558343 0,0.088359 0.03695,0.1558343 0.03694,0.067474 0.101212,0.1060313 0.06426,0.038557 0.147799,0.038557 z"
       id="path7705"
       style="font-weight:bold;font-size:26.6667px;line-height:1.25;font-family:Comfortaa;-inkscape-font-specification:'Comfortaa Bold';text-align:center;letter-spacing:0.01px;word-spacing:0px;text-anchor:middle;fill:#c1c8c2;stroke-width:0.0602451" />
    <path
       d="m 35.42968,1.8183779 q 0,-0.096393 0.04658,-0.1718998 0.0482,-0.077113 0.128522,-0.1220969 0.08034,-0.044983 0.176723,-0.044983 0.09639,0 0.14298,0.032131 0.04819,0.030524 0.03694,0.073901 -0.0048,0.022491 -0.01928,0.035344 -0.01285,0.011246 -0.03052,0.014458 -0.01767,0.00321 -0.03855,-0.00161 -0.102821,-0.020885 -0.184755,-0.00321 -0.08193,0.017673 -0.130129,0.065868 -0.04659,0.048196 -0.04659,0.122097 z m 0.0017,0.5494362 q -0.03856,0 -0.05944,-0.019279 -0.02089,-0.020885 -0.02089,-0.061049 V 1.5693644 q 0,-0.038557 0.02089,-0.059443 0.02088,-0.020885 0.05944,-0.020885 0.04017,0 0.05944,0.020885 0.02089,0.019279 0.02089,0.059443 v 0.7181224 q 0,0.038557 -0.02089,0.059442 -0.01928,0.020885 -0.05944,0.020885 z"
       id="path7707"
       style="font-weight:bold;font-size:26.6667px;line-height:1.25;font-family:Comfortaa;-inkscape-font-specification:'Comfortaa Bold';text-align:center;letter-spacing:0.01px;word-spacing:0px;text-anchor:middle;fill:#c1c8c2;stroke-width:0.0602451" />
    <path
       d="m 36.286564,2.0465063 -0.0996,-0.1092448 0.493202,-0.4401913 q 0.0241,-0.022492 0.05301,-0.020885 0.03053,0.00161 0.05141,0.025704 0.02249,0.024098 0.02088,0.053016 -0.0016,0.028918 -0.0257,0.051409 z m -0.07551,0.3213078 q -0.03535,0 -0.05783,-0.020885 -0.02089,-0.022491 -0.02089,-0.057835 V 1.1918274 q 0,-0.035344 0.02089,-0.056229 0.02249,-0.022491 0.05783,-0.022491 0.03534,0 0.05623,0.022491 0.02249,0.020885 0.02249,0.056229 v 1.0972661 q 0,0.035344 -0.02249,0.057835 -0.02089,0.020885 -0.05623,0.020886 z m 0.573533,-0.00803 q -0.02571,0.020885 -0.05783,0.017672 -0.03053,-0.00161 -0.05141,-0.027311 l -0.326126,-0.4032411 0.11246,-0.1060314 0.334156,0.4112741 q 0.02089,0.025704 0.01767,0.056229 -0.0016,0.028918 -0.02892,0.051408 z"
       id="path7709"
       style="font-weight:bold;font-size:26.6667px;line-height:1.25;font-family:Comfortaa;-inkscape-font-specification:'Comfortaa Bold';text-align:center;letter-spacing:0.01px;word-spacing:0px;text-anchor:middle;fill:#c1c8c2;stroke-width:0.0602451" />
  </g>
</svg>
